<?xml version="1.0" standalone="no"?>
<!DOCTYPE svg PUBLIC "-//W3C//DTD SVG 20010904//EN"
 "http://www.w3.org/TR/2001/REC-SVG-20010904/DTD/svg10.dtd">
<svg xmlns="http://www.w3.org/2000/svg"
     width="700.000000pt" height="700.000000pt" viewBox="0 0 700.000000 700.000000"
     preserveAspectRatio="xMidYMid meet">
<metadata>
Created by potrace 1.11, written by Peter Selinger 2001-2013
</metadata>
<g transform="translate(0.000000,700.000000) scale(0.100000,-0.100000)"
fill="#000000" stroke="none">
<path d="M2040 3790 l0 -2040 1068 0 c1157 0 1158 0 1327 55 280 92 527 320
646 595 230 532 27 1148 -467 1420 l-60 34 75 60 c143 116 280 299 340 456 49
125 65 227 58 365 -23 478 -329 885 -775 1035 -181 60 -171 60 -1238 60 l-974
0 0 -2040z m1942 1267 c130 -64 217 -180 240 -322 37 -221 -113 -444 -333
-494 -26 -6 -231 -11 -506 -11 l-463 0 0 435 0 436 493 -3 493 -3 76 -38z
m141 -1745 c88 -43 165 -120 208 -208 30 -60 34 -79 37 -166 4 -84 1 -108 -18
-161 -13 -34 -33 -78 -45 -97 -30 -48 -113 -124 -163 -149 -97 -49 -120 -51
-689 -51 l-533 0 0 435 0 436 568 -3 567 -3 68 -33z"/>
</g>
</svg>
